<svg width="700" height="500" viewBox="0 0 1402 877" fill="none" xmlns="http://www.w3.org/2000/svg">
<path d="M1221.69 341.485L1236.34 282.168C1236.74 280.564 1237.99 279.106 1239.87 278.051C1241.75 276.996 1244.13 276.413 1246.6 276.406C1249.37 276.406 1252.03 277.131 1253.98 278.421C1255.94 279.711 1257.04 281.46 1257.04 283.285V312.385L1283.31 283.152C1284.26 282.093 1285.53 281.175 1287.05 280.457C1288.57 279.739 1290.3 279.237 1292.13 278.982C1293.95 278.727 1295.84 278.726 1297.67 278.977C1299.5 279.229 1301.23 279.728 1302.75 280.443C1305.58 281.776 1307.52 283.779 1308.17 286.033C1308.81 288.286 1308.1 290.615 1306.19 292.533L1285.85 313.004C1285.67 313.186 1285.55 313.392 1285.51 313.606C1285.46 313.821 1285.49 314.04 1285.59 314.247C1285.69 314.454 1285.86 314.643 1286.08 314.803C1286.3 314.962 1286.58 315.087 1286.88 315.168C1287.32 315.281 1287.8 315.301 1288.25 315.226C1288.7 315.151 1289.11 314.985 1289.41 314.75L1315.45 294.417C1317.44 292.862 1320.28 291.888 1323.35 291.704C1326.43 291.521 1329.49 292.144 1331.87 293.438C1333.1 294.105 1334.11 294.93 1334.83 295.862C1335.56 296.795 1335.99 297.815 1336.1 298.861C1336.21 299.907 1335.99 300.957 1335.46 301.945C1334.94 302.934 1334.11 303.842 1333.03 304.612L1304.97 324.66C1304.57 324.94 1304.32 325.293 1304.24 325.672C1304.16 326.05 1304.26 326.436 1304.52 326.776C1304.71 327.022 1304.97 327.237 1305.3 327.407C1305.63 327.577 1306.01 327.697 1306.42 327.759C1306.82 327.82 1307.25 327.822 1307.66 327.764C1308.06 327.706 1308.45 327.589 1308.78 327.422L1335.2 314.094C1337.54 312.912 1340.47 312.352 1343.4 312.525C1346.34 312.699 1349.07 313.593 1351.05 315.03C1353.02 316.468 1354.09 318.339 1354.07 320.274C1354.04 322.209 1352.91 324.067 1350.9 325.48L1277.93 376.935L1221.69 341.485Z" fill="#E4A867"/>
<path d="M503.293 719.594L428.965 765.033C389.82 785.101 355.047 810.345 315.886 830.413C308.443 834.227 303.337 839.68 301.504 845.772C299.672 851.865 301.235 858.188 305.907 863.582L306.237 863.963C310.663 869.076 317.608 873.04 325.921 875.199C334.235 877.358 343.419 877.583 351.953 875.836C387.82 868.487 419.323 855.969 455.19 848.625L455.576 848.757C467.074 852.734 480.128 854.334 493.03 853.346C505.931 852.359 518.08 848.831 527.887 843.223C539.256 836.725 548.56 831.175 571.209 819.445C538.324 791.81 536.163 747.229 503.293 719.594Z" fill="#B5C8DB"/>
<path d="M383.683 503.388L395.269 400.394L644.341 393.394C673.213 392.586 701.856 397.09 727.057 406.402C752.259 415.714 773.022 429.465 787.02 446.114L863.437 537.028L891.293 520.97L987.885 544.129L999.045 582.335C1004.75 601.875 1006.18 626.335 988.792 642.604C982.109 648.754 973.36 653.804 963.226 657.361C957.254 659.439 950.873 660.962 944.265 661.885L779.789 677.461L570.889 819.26L455.994 744.128L632.45 624.165C662.904 603.462 702.698 589.788 745.907 585.182L763.719 583.282L660.877 492.806L383.683 503.388Z" fill="#5A6ACE"/>
<path d="M740.315 257.306C724.366 257.306 710.587 252.644 705.107 244.962L699.178 236.634C698.855 236.175 698.659 235.683 698.599 235.179L689.802 164.65C689.715 163.551 690.283 162.473 691.384 161.644C692.485 160.816 694.032 160.302 695.698 160.213C697.364 160.123 699.018 160.465 700.308 161.165C701.598 161.865 702.423 162.868 702.609 163.962L711.278 233.729L716.717 241.369C720.735 246.999 733.662 249.972 747.482 248.438L772.084 245.703C787.55 243.983 800.358 237.237 801.876 229.962L803.483 222.285L791.158 152.973C790.971 151.862 791.458 150.747 792.514 149.872C793.57 148.997 795.109 148.433 796.795 148.302C798.481 148.171 800.177 148.485 801.513 149.175C802.848 149.865 803.716 150.874 803.925 151.983L816.346 221.824C816.414 222.176 816.414 222.531 816.346 222.883L814.635 231.089C812.345 242.031 795.352 251.676 774.253 254.025L749.651 256.755C746.568 257.111 743.445 257.295 740.315 257.306Z" fill="black"/>
<path d="M828.268 101.491L633.333 120.699C619.847 122.028 610.55 130.304 612.568 139.185L631.129 220.873C633.147 229.754 645.716 235.876 659.202 234.547L854.136 215.339C867.622 214.011 876.919 205.734 874.901 196.853L856.34 115.165C854.322 106.284 841.754 100.162 828.268 101.491Z" fill="#010101"/>
<path d="M0.898926 621.817C39.4168 624.14 59.9612 633.039 71.6033 640.78C89.9704 652.981 96.4142 669.044 120.815 673.801C128.717 675.264 137.04 675.446 145.072 674.33C145.072 674.33 126.978 685.108 133.695 696.335C140.412 707.563 193.785 743.742 193.785 743.742C193.785 743.742 188.081 737.393 183.172 730.229C177.323 721.711 173.305 715.049 177.379 712.134C178.415 711.393 181.332 709.933 189.913 711.182C192.556 715.584 201.274 728.388 222.798 736.912C234.503 741.519 247.813 744.061 261.445 744.292L206.006 704.219L221.682 669.134L59.8889 619.595L0.898926 621.817Z" fill="black"/>
<path d="M314.94 647.955L314.996 663.061L266.676 661.653C263.607 662.987 258.995 665.018 253.491 667.579C234.265 676.532 224.655 681.002 221.024 685.785C213.15 696.156 221.096 708.309 223.048 711.309C229.942 721.843 242.219 727.341 257.597 734.245C275.161 742.108 292.082 750.595 309.942 758.161C310.119 758.235 310.666 758.468 310.601 758.589C310.216 759.293 288.908 754.97 279.315 752.817C252.407 746.764 228.52 741.399 210.547 727.378C204.657 722.785 187.487 709.389 192.067 695.526C195.747 684.415 212.378 676.214 211.35 675.558C210.772 675.188 205.726 677.965 201.893 680.172C196.566 682.759 188.146 687.69 184.089 695.447C178.464 706.24 177.757 719.156 192.364 728.817C202.641 735.616 217.641 757.388 217.641 757.388C203.026 752.917 179.541 743.833 162.492 726.526C153.204 717.097 139.304 702.992 146.101 687.272C150.118 677.955 159.76 671.928 165.553 668.886C154.031 669.505 137.384 669.241 120.704 663.944C91.1284 654.563 94.6074 638.907 64.6464 630.082C50.3207 625.849 0 622.357 0 622.357C5.11273 619.385 10.9789 617.029 17.3306 615.394C37.5376 610.246 57.5036 614.167 77.7909 619.273C142.461 635.564 139.834 646.257 166.613 646.595C201.588 647.018 219.449 628.923 242.597 637.071C242.597 637.071 243.85 637.516 268.685 650.167L314.94 647.955Z" fill="#FDF93F"/>
<path d="M314.891 648.001L302.397 653.583L314.747 662.7L314.891 648.001Z" fill="black"/>
<path d="M270.171 656.484C269.907 656.49 269.644 656.462 269.397 656.402C269.15 656.341 268.923 656.249 268.73 656.13C268.339 655.891 268.109 655.56 268.09 655.209C268.071 654.858 268.264 654.517 268.627 654.26C268.99 654.003 269.494 653.851 270.026 653.839L305.146 652.161C305.678 652.135 306.205 652.25 306.61 652.479C307.014 652.709 307.264 653.035 307.303 653.386C307.342 653.737 307.169 654.084 306.82 654.35C306.471 654.617 305.976 654.781 305.443 654.807L270.316 656.489L270.171 656.484Z" fill="black"/>
<path d="M250.051 640.727C245.922 641.876 235.412 644.352 222.927 642.278C218.452 641.529 214.202 640.289 210.353 638.611C212.056 637.828 223.248 632.849 236.65 635.331C241.771 636.306 246.4 638.17 250.051 640.727Z" fill="black"/>
<path d="M216.057 659.277C215.193 660.117 214.077 660.832 212.779 661.378C211.48 661.924 210.025 662.289 208.505 662.452C206.182 662.674 203.813 662.398 201.748 661.664C200.767 661.309 197.288 659.928 196.469 657.145C196.048 655.435 196.621 653.684 198.076 652.24C198.67 651.589 200.759 649.309 204.937 648.764C207.534 648.487 210.194 648.865 212.385 649.822C213.406 650.224 216.837 651.584 217.664 654.336C218.118 656.058 217.542 657.828 216.057 659.277Z" fill="black"/>
<path d="M820.34 284.925L815.945 267.412C816.585 262.377 815.487 257.312 812.731 252.597C809.068 246.453 802.763 241.147 794.589 237.327L774.06 229.692C771.167 228.614 767.891 228.062 764.567 228.094C761.243 228.125 757.991 228.739 755.147 229.872L733.116 238.639C731.381 239.893 723.595 245.782 724.35 254.184C725.106 262.586 733.936 269.994 746.847 273.232L760.506 276.406L758.497 299.687L821.167 290.427L820.34 284.925Z" fill="#E58E52"/>
<path d="M767.24 587.304C766.707 587.311 766.192 587.178 765.808 586.935C765.423 586.692 765.201 586.358 765.191 586.008C765.18 585.657 765.382 585.318 765.751 585.065C766.12 584.812 766.627 584.665 767.159 584.658L883.757 581.611C884.021 581.604 884.284 581.632 884.532 581.692C884.779 581.753 885.006 581.845 885.2 581.963C885.394 582.081 885.55 582.223 885.66 582.381C885.77 582.539 885.832 582.71 885.842 582.883C885.852 583.057 885.81 583.23 885.719 583.393C885.627 583.556 885.487 583.706 885.308 583.833C885.129 583.961 884.913 584.064 884.673 584.136C884.433 584.209 884.174 584.25 883.91 584.256L767.32 587.304H767.24Z" fill="black"/>
<path d="M399.937 402.633L329.313 376.792L320.611 316.263C318.434 305.782 304.783 298.142 289.734 298.369C276.357 298.576 264.369 304.956 260.946 313.999C261.327 342.2 262.334 370.938 263.967 400.215C264.685 412.825 265.513 425.328 266.45 437.723L319.607 450.686C322.055 451.285 324.134 452.399 325.52 453.857C326.906 455.314 327.522 457.032 327.272 458.744V458.897C327.107 460.01 326.58 461.087 325.727 462.054C324.874 463.021 323.715 463.856 322.328 464.501C320.942 465.147 319.36 465.588 317.691 465.795C316.022 466.002 314.305 465.971 312.657 465.702C293.374 462.553 275.328 459.405 255.21 456.257L250.855 503.215C296.218 502.437 339.838 500.606 385.201 499.828C389.516 467.077 395.598 435.379 399.937 402.633Z" fill="#B5C8DB"/>
<path d="M744.437 290.163L844.065 283.285L862.545 400.744L908.342 420.321L997.526 442.892L1119.65 430.374L1211.25 333.02L1298.02 379.58L1201.95 480.823C1195.74 487.126 1187.67 492.541 1178.22 496.749C1168.77 500.956 1158.13 503.87 1146.94 505.315L1012.79 520.32L989.492 540.796L890.666 516.088L888.256 500.215L798.477 455.432C787.497 449.857 778.355 442.867 771.61 434.889C764.865 426.912 760.658 418.113 759.244 409.03L744.437 290.163Z" fill="#5A6ACE"/>
<path d="M943.695 429.315C946.595 429.96 941.284 506.563 941.284 506.563L997.526 440.426L943.695 429.315Z" fill="white"/>
<path d="M1280.83 374.818L1350.84 324.025C1352.87 322.836 1354.14 321.18 1354.38 319.396C1354.63 317.612 1353.82 315.834 1352.14 314.427C1350.46 313.019 1348.03 312.087 1345.34 311.821C1342.65 311.556 1339.91 311.977 1337.67 312.999C1326.97 317.882 1310.26 328.713 1305.84 327.718C1305.36 327.612 1304.62 327.327 1304.01 326.337L1335.03 302.782C1336.04 302.097 1336.83 301.286 1337.35 300.397C1337.87 299.507 1338.12 298.558 1338.07 297.604C1338.03 296.651 1337.69 295.713 1337.08 294.847C1336.48 293.981 1335.61 293.204 1334.54 292.562C1333.47 291.92 1332.21 291.427 1330.85 291.111C1329.48 290.796 1328.03 290.664 1326.59 290.725C1325.14 290.785 1323.73 291.036 1322.43 291.463C1321.14 291.89 1319.99 292.484 1319.05 293.21L1286.63 315.787C1286.4 315.961 1286.07 316.071 1285.73 316.096C1285.38 316.121 1285.03 316.059 1284.74 315.921C1284.46 315.784 1284.27 315.582 1284.2 315.355C1284.14 315.129 1284.2 314.894 1284.39 314.697L1307.16 289.671C1308.71 287.974 1309.22 285.953 1308.58 284.019C1307.94 282.084 1306.21 280.382 1303.74 279.259C1301.27 278.135 1298.24 277.674 1295.26 277.97C1292.29 278.266 1289.6 279.296 1287.74 280.851C1277.51 289.406 1265.67 303.877 1255.44 312.433L1256.71 283.136C1256.68 281.377 1255.65 279.689 1253.81 278.413C1251.97 277.136 1249.47 276.366 1246.8 276.258H1246.6C1243.81 276.144 1241.06 276.764 1238.96 277.982C1236.86 279.2 1235.58 280.917 1235.41 282.755C1234.09 296.194 1223.03 327.872 1221.56 341.311C1239.78 353.342 1262.6 362.702 1280.83 374.818Z" fill="#E58E52"/>
<path d="M981.135 461.103C980.715 461.102 980.306 461.015 979.965 460.853C979.624 460.692 979.367 460.465 979.231 460.204C977.423 456.696 976.017 453.543 974.611 450.495C973.422 447.849 972.2 445.172 970.73 442.246C966.134 443.58 962.479 444.648 958.831 445.717C954.653 446.939 950.483 448.162 944.899 449.775C944.655 449.859 944.387 449.909 944.113 449.922C943.838 449.935 943.562 449.91 943.303 449.85C943.043 449.79 942.805 449.695 942.603 449.571C942.402 449.448 942.241 449.299 942.13 449.133C942.02 448.967 941.963 448.787 941.962 448.606C941.961 448.425 942.017 448.245 942.126 448.079C942.235 447.913 942.395 447.763 942.595 447.638C942.796 447.514 943.033 447.419 943.292 447.357C948.868 445.738 953.038 444.521 957.208 443.299C961.378 442.077 965.556 440.86 971.132 439.241C971.387 439.167 971.662 439.129 971.941 439.129C972.219 439.129 972.495 439.167 972.75 439.241C973.005 439.315 973.234 439.422 973.423 439.557C973.612 439.692 973.757 439.851 973.848 440.024C975.663 443.537 977.061 446.691 978.467 449.738C979.873 452.786 981.255 455.892 983.047 459.352C983.153 459.551 983.184 459.765 983.138 459.974C983.093 460.183 982.971 460.381 982.785 460.553C982.598 460.725 982.352 460.864 982.066 460.96C981.78 461.056 981.464 461.105 981.143 461.103H981.135Z" fill="black"/>
<path d="M953.336 445.717C954.407 449.597 955.479 453.477 956.55 457.357C951.901 464.084 947.246 470.809 942.586 477.532L941.284 506.563L962.793 481.537L966.81 459.585L978.243 452.066C976.13 448.421 973.929 444.072 971.816 440.426C966.288 442.014 958.864 444.13 953.336 445.717Z" fill="black"/>
<path d="M1037.7 411.855C1036.14 414.427 1034.2 416.892 1031.91 419.215C1024.39 427.279 1019.33 432.702 1009.79 436.839C1004.09 439.282 997.71 440.948 991.019 441.739C982.509 442.448 973.864 441.823 965.791 439.914C959.974 438.517 949.914 436.115 943.92 429.607C939.333 424.633 939.228 419.633 939.1 414.263C939.1 412.676 939.164 411.194 939.341 409.803C939.619 407.585 940.137 405.384 940.891 403.215C941.108 402.602 941.325 402.03 941.534 401.512L938.063 398.385C937.583 397.962 937.27 397.468 937.153 396.946C937.036 396.424 937.118 395.891 937.392 395.395C937.667 394.899 938.125 394.456 938.724 394.106C939.324 393.756 940.047 393.51 940.827 393.39L946.66 392.443C950.87 387.202 956.571 382.542 963.453 378.718C978.011 370.448 994.185 371.247 999.094 371.485C1002.39 371.644 1003.84 374.067 1006.64 374.395C1011.88 374.981 1016.88 376.27 1021.34 378.181C1025.79 380.092 1029.6 382.586 1032.53 385.506C1032.57 385.506 1032.89 385.152 1032.93 385.152C1045.18 397.57 1042.64 403.21 1037.7 411.855Z" fill="#E58E52"/>
<path d="M948.685 393.337C951.208 395.874 954.529 398.024 958.422 399.644C974.942 406.416 988.263 399.496 990.296 398.829C983.482 395.051 982.454 394.035 975.143 391.342C971.522 390.006 967.408 389.36 963.261 389.476C959.115 389.593 955.099 390.468 951.665 392.003L948.685 393.337Z" fill="white"/>
<path d="M1041.15 394.923C1040.35 391.389 1035.98 385.267 1024.12 378.844C1020.36 376.807 1009.15 371.125 993.051 371.304C986.524 371.399 980.104 372.417 974.226 374.289C994.859 386.548 999.222 391.156 998.33 392.807C998.241 392.976 997.526 394.654 996.249 396.908C994.899 399.294 994.62 401.885 995.445 404.373C1001.46 398.553 1013 395.648 1020.11 396.913C1033.35 399.278 1029.31 410.034 1029.07 410.955C1028.29 413.516 1026.58 415.916 1024.1 417.952C1021.61 419.988 1018.42 421.6 1014.79 422.653C1013.53 423.024 1012.16 423.225 1010.78 423.246C1013.52 425.103 1016.69 427.13 1020.19 429.405C1020.6 429.673 1021.1 429.884 1021.63 430.023C1022.17 430.163 1022.75 430.229 1023.33 430.217C1023.91 430.205 1024.48 430.116 1025.01 429.954C1025.53 429.793 1026 429.563 1026.39 429.278C1033.68 423.849 1045.11 412.738 1041.15 394.923Z" fill="black"/>
<path d="M1006.01 405.887C1005.73 405.889 1005.44 405.85 1005.18 405.773C1004.92 405.696 1004.69 405.584 1004.5 405.443C1004.15 405.179 1003.97 404.835 1004 404.485C1004.04 404.135 1004.28 403.808 1004.68 403.575C1008.22 401.522 1016.87 398.813 1024.3 403.3C1024.67 403.54 1024.89 403.865 1024.9 404.209C1024.92 404.552 1024.73 404.885 1024.38 405.139C1024.03 405.392 1023.54 405.546 1023.02 405.567C1022.5 405.588 1021.99 405.475 1021.59 405.252C1014.94 401.236 1007.64 405.379 1007.34 405.559C1006.97 405.771 1006.5 405.887 1006.01 405.887Z" fill="black"/>
<path d="M1015.64 413.971C1015.3 413.97 1014.96 413.911 1014.66 413.799C1014.36 413.687 1014.11 413.527 1013.93 413.334C1013.76 413.14 1013.65 412.92 1013.64 412.693C1013.63 412.467 1013.7 412.242 1013.86 412.04C1017.64 407.199 1013.72 403.442 1013.68 403.405C1013.37 403.118 1013.25 402.763 1013.34 402.416C1013.43 402.07 1013.72 401.762 1014.16 401.559C1014.59 401.356 1015.13 401.276 1015.66 401.335C1016.19 401.395 1016.65 401.589 1016.96 401.876C1017.18 402.083 1022.32 406.998 1017.44 413.252C1017.27 413.468 1017.01 413.65 1016.69 413.776C1016.38 413.903 1016.01 413.971 1015.64 413.971Z" fill="black"/>
<path d="M957.329 396.273C959.099 396.273 960.535 395.328 960.535 394.162C960.535 392.996 959.099 392.051 957.329 392.051C955.558 392.051 954.123 392.996 954.123 394.162C954.123 395.328 955.558 396.273 957.329 396.273Z" fill="black"/>
<path d="M972.266 389.775C971.772 389.778 971.293 389.659 970.925 389.442L960.994 383.622C960.596 383.388 960.356 383.06 960.326 382.71C960.296 382.36 960.478 382.016 960.833 381.754C961.188 381.493 961.686 381.334 962.218 381.315C962.75 381.295 963.272 381.415 963.669 381.649L973.6 387.469C973.902 387.647 974.115 387.882 974.21 388.141C974.306 388.401 974.28 388.674 974.135 388.923C973.991 389.173 973.735 389.388 973.401 389.54C973.068 389.692 972.672 389.774 972.266 389.775Z" fill="black"/>
<path d="M965.597 415.273C965.088 415.274 964.597 415.146 964.226 414.917C963.854 414.688 963.629 414.375 963.596 414.04C963.323 411.551 964.514 409.088 966.922 407.162C968.93 405.649 971.618 404.596 974.595 404.156C981.409 402.998 987.145 405.125 989.299 406.093C989.517 406.191 989.703 406.316 989.847 406.462C989.992 406.607 990.091 406.77 990.14 406.941C990.189 407.111 990.186 407.287 990.132 407.457C990.078 407.627 989.974 407.788 989.825 407.932C989.676 408.075 989.486 408.198 989.265 408.293C989.044 408.388 988.797 408.453 988.538 408.486C988.279 408.518 988.012 408.516 987.754 408.48C987.496 408.445 987.251 408.376 987.033 408.278C985.707 407.68 980.959 405.807 975.6 406.717C973.421 407.023 971.45 407.782 969.975 408.881C968.239 410.27 967.377 412.044 967.565 413.839C967.584 414.012 967.55 414.186 967.466 414.35C967.383 414.515 967.25 414.667 967.077 414.798C966.904 414.929 966.693 415.035 966.457 415.112C966.221 415.189 965.964 415.235 965.701 415.246L965.597 415.273Z" fill="black"/>
<path d="M947.021 407.199C946.217 409.003 943.269 409.538 942.369 409.696C941.387 409.861 940.364 409.892 939.364 409.786C939.642 407.569 940.161 405.368 940.914 403.199C941.574 403.073 942.264 403.036 942.946 403.089C943.628 403.141 944.286 403.283 944.884 403.506C945.788 403.893 946.482 404.459 946.866 405.123C947.25 405.787 947.304 406.514 947.021 407.199Z" fill="black"/>
<path d="M1044.55 381.802C1071.21 381.802 1092.82 367.57 1092.82 350.014C1092.82 332.458 1071.21 318.226 1044.55 318.226C1017.89 318.226 996.281 332.458 996.281 350.014C996.281 367.57 1017.89 381.802 1044.55 381.802Z" fill="#010101"/>
<path d="M1092.53 328.586C1119.19 328.586 1140.81 314.354 1140.81 296.798C1140.81 279.242 1119.19 265.01 1092.53 265.01C1065.88 265.01 1044.26 279.242 1044.26 296.798C1044.26 314.354 1065.88 328.586 1092.53 328.586Z" fill="#010101"/>
<path d="M857.393 125.96L615.131 149.831L623.097 184.89L865.359 161.019L857.393 125.96Z" fill="#FFE715"/>
<path d="M656.441 171.116L843.591 92.6667L886.175 130.132L1065.66 44.6194C1078.98 59.9632 1093.17 76.3282 1106.49 91.6668C1164.62 61.9738 1221.88 31.2491 1280.04 1.55615L1400.47 98.2752L1201.28 202.333L1166.25 170.492L989.732 238.978C970.187 218.52 950.636 198.061 931.08 177.603L856.792 210.407C841.687 215.534 820.5 221.163 809.669 215.433C800.831 210.767 805.652 202.259 799.144 195.603C791.776 188.084 769.512 183.433 707.694 192.862C694.951 182.084 669.2 181.878 656.441 171.116Z" fill="white"/>
<path d="M889.862 197.92L900.114 144.868L658.812 169.09L658.916 234.46L867.815 214.735C873.951 214.153 879.561 212.131 883.612 209.042C887.663 205.952 889.883 202.002 889.862 197.92Z" fill="#010101"/>
<path d="M791.131 147.94L753.785 151.62L757.233 166.795L794.58 163.115L791.131 147.94Z" fill="#BEFF81"/>
<path d="M1200.91 203.946C1200.49 203.947 1200.08 203.862 1199.74 203.704C1199.4 203.546 1199.15 203.322 1199.01 203.064C1198.87 202.805 1198.86 202.524 1198.97 202.261C1199.08 201.997 1199.32 201.763 1199.65 201.592L1397.15 97.3013L1329.73 43.4339C1329.39 43.163 1329.23 42.8147 1329.28 42.4654C1329.34 42.1161 1329.6 41.7946 1330.01 41.5714C1330.42 41.3483 1330.95 41.2419 1331.48 41.2757C1332.01 41.3094 1332.5 41.4805 1332.83 41.7513L1401.55 96.6558C1401.71 96.7914 1401.84 96.9476 1401.92 97.1153C1401.99 97.283 1402.02 97.4589 1401.99 97.633C1401.96 97.807 1401.88 97.9758 1401.76 98.1295C1401.63 98.2833 1401.46 98.4189 1401.25 98.5288L1202.16 203.655C1201.8 203.843 1201.36 203.946 1200.91 203.946Z" fill="black"/>
<path d="M1331.28 43.9154C1330.99 43.9158 1330.7 43.8729 1330.43 43.7896C1330.16 43.7063 1329.92 43.5848 1329.73 43.4339L1278.05 2.16433C1277.88 2.03023 1277.75 1.87568 1277.68 1.70951C1277.6 1.54334 1277.57 1.3688 1277.6 1.19586C1277.62 1.02292 1277.7 0.85496 1277.82 0.701575C1277.95 0.54819 1278.12 0.412378 1278.32 0.301902C1278.52 0.191425 1278.76 0.108447 1279.01 0.0576977C1279.26 0.00694868 1279.53 -0.0105758 1279.79 0.00612889C1280.05 0.0228335 1280.31 0.0734395 1280.54 0.155055C1280.77 0.23667 1280.98 0.347696 1281.15 0.481797L1332.84 41.7514C1333.17 42.0215 1333.33 42.3667 1333.28 42.713C1333.23 43.0593 1332.97 43.3789 1332.57 43.6032C1332.21 43.8045 1331.76 43.9152 1331.28 43.9154Z" fill="black"/>
<path d="M1200.49 203.693C1200.17 203.689 1199.86 203.636 1199.58 203.538C1199.3 203.441 1199.06 203.302 1198.88 203.132L1089.76 101.593C1089.47 101.318 1089.34 100.98 1089.41 100.647C1089.48 100.314 1089.74 100.01 1090.14 99.7992L1210.27 36.2705C1210.69 36.0725 1211.21 35.9875 1211.72 36.0329C1212.23 36.0784 1212.69 36.2507 1213.01 36.5145C1213.33 36.7783 1213.49 37.1135 1213.45 37.451C1213.41 37.7885 1213.17 38.1026 1212.79 38.3286L1094.13 101.08L1202.13 201.608C1202.34 201.805 1202.46 202.035 1202.49 202.275C1202.51 202.515 1202.44 202.755 1202.28 202.969C1202.11 203.183 1201.86 203.364 1201.55 203.492C1201.24 203.619 1200.88 203.689 1200.52 203.693H1200.49Z" fill="black"/>
<path d="M989.323 240.047C988.982 240.049 988.646 239.993 988.348 239.884C988.05 239.776 987.799 239.619 987.619 239.428L883.306 130.132L840.851 93.7727C840.532 93.492 840.395 93.1392 840.47 92.7919C840.545 92.4446 840.827 92.1313 841.253 91.9208C841.679 91.7103 842.215 91.6199 842.742 91.6695C843.27 91.7192 843.746 91.9047 844.065 92.1854L886.649 128.593C886.688 128.626 886.723 128.661 886.753 128.698L989.973 236.931L1164.4 168.846C1164.62 168.758 1164.88 168.699 1165.14 168.675C1165.4 168.65 1165.66 168.66 1165.92 168.703C1166.18 168.746 1166.42 168.822 1166.63 168.927C1166.84 169.031 1167.02 169.162 1167.15 169.312C1167.29 169.462 1167.38 169.627 1167.41 169.8C1167.45 169.972 1167.44 170.147 1167.37 170.316C1167.3 170.484 1167.19 170.643 1167.03 170.782C1166.87 170.921 1166.67 171.038 1166.45 171.127L990.343 239.862C990.035 239.983 989.682 240.047 989.323 240.047Z" fill="black"/>
<path d="M951.648 99.3694C951.224 99.3691 950.812 99.2806 950.469 99.1165C950.126 98.9524 949.871 98.7211 949.74 98.4558C949.609 98.1904 949.609 97.9046 949.739 97.6392C949.87 97.3738 950.125 97.1423 950.467 96.9779L1063.22 42.793C1063.45 42.6808 1063.71 42.6023 1063.99 42.563C1064.27 42.5237 1064.55 42.5246 1064.83 42.5655C1065.11 42.6016 1065.37 42.6753 1065.59 42.782C1065.82 42.8887 1066.01 43.0258 1066.16 43.1846L1109.46 91.2213C1109.74 91.523 1109.82 91.8837 1109.68 92.2241C1109.55 92.5644 1109.22 92.8565 1108.76 93.0361C1108.31 93.2157 1107.76 93.2682 1107.24 93.1818C1106.72 93.0955 1106.28 92.8775 1106.01 92.5758L1063.83 45.7877L952.837 99.1155C952.491 99.2799 952.075 99.3688 951.648 99.3694Z" fill="black"/>
<path d="M889.861 512.385L995.918 533.02L989.49 552.596L881.023 530.374L889.861 512.385Z" fill="black"/>
<path d="M941.942 518.932L928.481 516.426C921.521 515.13 914.283 517.795 912.315 522.378L908.509 531.242C906.541 535.825 910.587 540.592 917.547 541.888L931.008 544.394C937.968 545.69 945.205 543.025 947.174 538.442L950.98 529.578C952.948 524.995 948.902 520.229 941.942 518.932Z" fill="#BEFF81"/>
<path d="M940.113 527.104L922.625 523.848L918.46 533.547L935.948 536.803L940.113 527.104Z" fill="black"/>
<path d="M661.11 494.156C660.725 494.154 660.349 494.081 660.025 493.944C659.776 493.839 659.565 493.698 659.408 493.532C659.251 493.367 659.152 493.18 659.117 492.987C658.169 487.791 656.948 481.96 656.538 481.193C656.359 480.864 656.384 480.501 656.608 480.184C656.833 479.867 657.237 479.621 657.735 479.5C657.978 479.439 658.238 479.41 658.498 479.415C658.758 479.42 659.014 479.458 659.251 479.529C659.489 479.599 659.703 479.699 659.881 479.824C660.059 479.949 660.198 480.096 660.29 480.256C660.925 481.346 662.162 487.6 662.813 491.082L678.746 487.701C679.252 487.597 679.8 487.628 680.27 487.789C680.741 487.95 681.096 488.226 681.258 488.558C681.42 488.891 681.376 489.252 681.136 489.563C680.896 489.874 680.478 490.11 679.975 490.219L661.729 494.092C661.529 494.134 661.32 494.156 661.11 494.156Z" fill="black"/>
<path d="M777.379 675.727C777.007 675.725 776.643 675.656 776.328 675.526C776.012 675.396 775.757 675.212 775.591 674.993C775.424 674.774 775.353 674.529 775.385 674.285C775.417 674.041 775.551 673.808 775.772 673.611L792.508 658.844C792.827 658.563 793.303 658.377 793.831 658.328C794.358 658.278 794.894 658.369 795.32 658.579C795.746 658.79 796.028 659.103 796.103 659.45C796.179 659.797 796.041 660.15 795.722 660.431L778.986 675.193C778.8 675.358 778.558 675.493 778.279 675.586C777.999 675.678 777.691 675.727 777.379 675.727Z" fill="black"/>
<path d="M1138.05 107.201L1220.02 93.7886L1169.73 137.032L1138.05 107.201Z" fill="#FFE715"/>
<path d="M1169.73 137.031L1206.36 168.841L1274.41 101.799L1203.24 108.026L1169.73 137.031Z" fill="#BEFF81"/>
<path d="M1335.16 97.1904C1334.85 97.1934 1334.54 97.1501 1334.26 97.0639C1333.99 96.9777 1333.74 96.8509 1333.55 96.6931L1269 43.4182C1268.82 43.2833 1268.69 43.1264 1268.61 42.9566C1268.52 42.7869 1268.49 42.608 1268.52 42.4307C1268.54 42.2533 1268.62 42.0811 1268.75 41.9245C1268.88 41.7678 1269.06 41.6299 1269.27 41.519C1269.48 41.4081 1269.72 41.3265 1269.99 41.2791C1270.25 41.2317 1270.52 41.2195 1270.79 41.2432C1271.05 41.2669 1271.31 41.326 1271.55 41.417C1271.78 41.508 1271.98 41.629 1272.14 41.7727L1336.69 95.0423C1337.02 95.3167 1337.17 95.6664 1337.11 96.0146C1337.05 96.3628 1336.78 96.681 1336.37 96.8994C1336.02 97.0828 1335.6 97.1852 1335.16 97.1904Z" fill="black"/>
<path d="M1106.56 151.105C1106.25 151.105 1105.94 151.058 1105.66 150.966C1105.39 150.874 1105.14 150.741 1104.96 150.576L1044.43 95.2962C1044.27 95.1558 1044.15 94.9956 1044.09 94.8249C1044.02 94.6542 1044.01 94.4765 1044.04 94.3022C1044.08 94.1279 1044.18 93.9606 1044.32 93.81C1044.45 93.6594 1044.64 93.5286 1044.85 93.4254C1045.07 93.3221 1045.32 93.2484 1045.58 93.2085C1045.84 93.1687 1046.11 93.1636 1046.37 93.1935C1046.64 93.2233 1046.89 93.2876 1047.11 93.3825C1047.34 93.4774 1047.53 93.6009 1047.69 93.746L1108.22 149.026C1108.44 149.223 1108.58 149.456 1108.61 149.701C1108.64 149.946 1108.57 150.192 1108.41 150.411C1108.24 150.631 1107.98 150.816 1107.67 150.945C1107.35 151.074 1106.98 151.142 1106.61 151.142L1106.56 151.105Z" fill="black"/>
<path d="M1086.48 162.216C1086.16 162.216 1085.86 162.168 1085.58 162.077C1085.3 161.985 1085.06 161.851 1084.87 161.687L1024.34 106.407C1024.18 106.267 1024.07 106.106 1024 105.936C1023.93 105.765 1023.92 105.587 1023.96 105.413C1024 105.239 1024.09 105.071 1024.23 104.921C1024.37 104.77 1024.55 104.639 1024.77 104.536C1024.98 104.433 1025.23 104.359 1025.49 104.319C1025.75 104.28 1026.02 104.274 1026.29 104.304C1026.55 104.334 1026.8 104.398 1027.03 104.493C1027.25 104.588 1027.45 104.712 1027.6 104.857L1088.13 160.137C1088.36 160.333 1088.49 160.567 1088.52 160.812C1088.56 161.056 1088.49 161.302 1088.32 161.522C1088.15 161.742 1087.9 161.927 1087.58 162.056C1087.26 162.185 1086.9 162.253 1086.52 162.253L1086.48 162.216Z" fill="black"/>
<path d="M1314.89 106.756C1314.58 106.759 1314.28 106.716 1314 106.63C1313.72 106.544 1313.48 106.417 1313.29 106.259L1248.74 52.9891C1248.57 52.8532 1248.45 52.6974 1248.38 52.5304C1248.3 52.3634 1248.28 52.1886 1248.31 52.0159C1248.34 51.8432 1248.42 51.676 1248.55 51.5239C1248.67 51.3718 1248.85 51.2377 1249.05 51.1293C1249.26 51.0209 1249.5 50.9403 1249.75 50.8922C1250 50.844 1250.27 50.8292 1250.53 50.8486C1250.79 50.868 1251.05 50.9212 1251.28 51.0053C1251.51 51.0893 1251.71 51.2024 1251.88 51.3383L1316.43 104.608C1316.76 104.882 1316.91 105.233 1316.85 105.582C1316.8 105.931 1316.53 106.25 1316.11 106.47C1315.77 106.653 1315.34 106.753 1314.89 106.756Z" fill="black"/>
<path d="M1071.04 181.698C1070.89 181.698 1070.74 181.687 1070.59 181.666L969.356 166.322C968.836 166.243 968.386 166.031 968.103 165.734C967.82 165.436 967.727 165.077 967.845 164.735L976.997 138.126L931.81 134.608C931.546 134.588 931.291 134.534 931.059 134.449C930.827 134.363 930.623 134.249 930.458 134.112C930.293 133.975 930.171 133.818 930.098 133.65C930.026 133.481 930.004 133.305 930.034 133.132C930.065 132.958 930.147 132.79 930.277 132.637C930.406 132.485 930.579 132.35 930.788 132.241C930.996 132.133 931.234 132.052 931.49 132.004C931.745 131.957 932.012 131.942 932.276 131.962L979.68 135.666C979.958 135.685 980.226 135.741 980.468 135.832C980.711 135.924 980.921 136.047 981.086 136.195C981.249 136.347 981.362 136.52 981.418 136.702C981.473 136.884 981.469 137.072 981.408 137.253L972.208 164.01L1062.05 177.629L1054.59 174.005C1054.16 173.794 1053.88 173.481 1053.8 173.133C1053.73 172.786 1053.87 172.433 1054.19 172.153C1054.5 171.872 1054.98 171.687 1055.51 171.637C1056.04 171.587 1056.57 171.678 1057 171.888L1072.26 179.296C1072.6 179.461 1072.85 179.693 1072.98 179.957C1073.11 180.222 1073.11 180.507 1072.98 180.771C1072.85 181.036 1072.59 181.266 1072.25 181.429C1071.91 181.593 1071.5 181.681 1071.07 181.682L1071.04 181.698Z" fill="black"/>
<path d="M1054.17 185.401C1053.69 185.4 1053.23 185.288 1052.87 185.084C1052.51 184.881 1052.27 184.599 1052.19 184.29C1052.12 183.98 1052.21 183.663 1052.45 183.394C1052.7 183.126 1053.08 182.924 1053.54 182.824L1070.41 179.12C1070.91 179.025 1071.44 179.06 1071.9 179.218C1072.36 179.377 1072.71 179.647 1072.88 179.972C1073.04 180.296 1073.01 180.65 1072.78 180.959C1072.56 181.268 1072.16 181.508 1071.68 181.628L1054.8 185.332C1054.6 185.378 1054.39 185.401 1054.17 185.401Z" fill="black"/>
</svg>
